# xmcd
#
# Track frame offsets:
# 150
# 21075
# 41794
# 58777
# 77274
# 93260
# 111454
# 127571
# 147714
# 166738
# 184454
# 201274
# 216574
# 234389
# 250183
# 264390
# 280952
# 297163
# 311999
# 328478
# 343950
#
# Disc length: 4780 seconds
#
#
# Revision: 0
# Processed by: cddbd v1.5.2PL0 Copyright (c) Steve Scherf et al.
# Submitted via: FreeRIP 2.96 
#
DISCID=4d12aa15
DTITLE=Bravo Hits 58
DYEAR=2007
DGENRE=
TTITLE0=Bon Jovi - (You Want To) Make A Memory
TTITLE1=Pink - Dear Mr. President
TTITLE2=Ich and Ich - Vom selben Stern
TTITLE3=Azad Feat. Adel Tawil - Prison Break Anthem (Ich glaub an Dich)
TTITLE4=Christina Stürmer - Um bei Dir zu sein
TTITLE5=Avril Lavigne - When You're Gone
TTITLE6=Maroon 5 - Makes Me Wonder
TTITLE7=Maria Mena - Just Hold Me
TTITLE8=Akon - Don't Matter
TTITLE9=Sarah Connor Feat. Ne-Yo - Sexual Healing
TTITLE10=Tommy Reeve - I'm Sorry
TTITLE11=Melanie C - Carolyna
TTITLE12=Rapsoul - Erste Liebe
TTITLE13=Pretty Ricky - (I Wanna See You) Push It Baby
TTITLE14=Jan Delay - Türlich, Türlich
TTITLE15=Die Fantastischen Vier - Einfach sein
TTITLE16=Down Below - Private Soul Security
TTITLE17=Killerpilze - Liebmichhassmich
TTITLE18=LaFee - Heul doch
TTITLE19=Revolverheld - Du explodierst
TTITLE20=Sportfreunde Stiller - Alles Roger
EXTD=
EXTT0=
EXTT1=
EXTT2=
EXTT3=
EXTT4=
EXTT5=
EXTT6=
EXTT7=
EXTT8=
EXTT9=
EXTT10=
EXTT11=
EXTT12=
EXTT13=
EXTT14=
EXTT15=
EXTT16=
EXTT17=
EXTT18=
EXTT19=
EXTT20=
PLAYORDER=
